<svg width="24" height="35" viewBox="0 0 24 35" fill="none" xmlns="http://www.w3.org/2000/svg">
<path d="M12 0C7.01429 0 3 4.46032 3 10V11.6667C1.35 11.6667 0 13.1667 0 15V31.6667C0 33.5 1.35 35 3 35H21C22.65 35 24 33.5 24 31.6667V15C24 13.1667 22.65 11.6667 21 11.6667V10C21 4.46032 16.9857 0 12 0ZM12 3.33333C15.4143 3.33333 18 6.20635 18 10V11.6667H6V10C6 6.20635 8.58571 3.33333 12 3.33333ZM12 20C13.65 20 15 21.5 15 23.3333C15 25.1667 13.65 26.6667 12 26.6667C10.35 26.6667 9 25.1667 9 23.3333C9 21.5 10.35 20 12 20Z" fill="#A74F41"/>
</svg>
