<svg width="32" height="35" viewBox="0 0 32 35" fill="none" xmlns="http://www.w3.org/2000/svg">
<path d="M12.75 0C10.6785 0 9 1.865 9 4.16667V6.66667H3C1.3425 6.66667 0 8.15833 0 10V16.6667H2.25C4.3215 16.6667 6 18.5317 6 20.8333C6 23.135 4.3215 25 2.25 25H0V31.6667C0 33.5083 1.3425 35 3 35H9V32.5C9 30.1983 10.6785 28.3333 12.75 28.3333C14.8215 28.3333 16.5 30.1983 16.5 32.5V35H22.5C24.1575 35 25.5 33.5083 25.5 31.6667V25H27.75C29.8215 25 31.5 23.135 31.5 20.8333C31.5 18.5317 29.8215 16.6667 27.75 16.6667H25.5V10C25.5 8.15833 24.1575 6.66667 22.5 6.66667H16.5V4.16667C16.5 1.865 14.8215 0 12.75 0Z" fill="#A74F41"/>
</svg>
