<svg width="42" height="42" viewBox="0 0 42 42" fill="none" xmlns="http://www.w3.org/2000/svg">
<path d="M35 21V31.5C35 35.3675 31.8675 38.5 28 38.5H14C10.1325 38.5 7 35.3675 7 31.5V21C7 20.0375 7.7875 19.25 8.75 19.25H12.1975C13.16 19.25 13.9475 20.0375 13.9475 21V26.495C13.9475 27.79 14.665 28.98 15.8025 29.5925C16.31 29.8725 16.87 30.0125 17.4475 30.0125C18.1125 30.0125 18.7775 29.82 19.355 29.435L21.0175 28.35L22.5575 29.3825C23.625 30.1 24.99 30.1875 26.1275 29.575C27.2825 28.9625 28 27.79 28 26.4775V21C28 20.0375 28.7875 19.25 29.75 19.25H33.25C34.2125 19.25 35 20.0375 35 21Z" fill="#A74F41"/>
<path d="M37.625 12.25V14C37.625 15.925 36.6975 17.5 34.125 17.5H7.875C5.1975 17.5 4.375 15.925 4.375 14V12.25C4.375 10.325 5.1975 8.75 7.875 8.75H34.125C36.6975 8.75 37.625 10.325 37.625 12.25Z" fill="#A74F41"/>
<path d="M20.3708 8.7499H10.7108C10.1158 8.1024 10.1333 7.1049 10.7633 6.4749L13.2483 3.9899C13.8958 3.3424 14.9633 3.3424 15.6108 3.9899L20.3708 8.7499Z" fill="#A74F41"/>
<path d="M31.2733 8.7499H21.6133L26.3733 3.9899C27.0208 3.3424 28.0883 3.3424 28.7358 3.9899L31.2208 6.4749C31.8508 7.1049 31.8683 8.1024 31.2733 8.7499Z" fill="#A74F41"/>
<path d="M24.447 19.25C25.4095 19.25 26.197 20.0375 26.197 21V26.4775C26.197 27.8775 24.6395 28.7175 23.4845 27.93L21.9095 26.88C21.332 26.495 20.5795 26.495 19.9845 26.88L18.3395 27.965C17.1845 28.735 15.6445 27.895 15.6445 26.5125V21C15.6445 20.0375 16.432 19.25 17.3945 19.25H24.447Z" fill="#A74F41"/>
</svg>
