<svg width="18" height="23" viewBox="0 0 18 23" fill="none" xmlns="http://www.w3.org/2000/svg">
<path fill-rule="evenodd" clip-rule="evenodd" d="M5.08301 6.16667C5.08301 4.00355 6.83656 2.25 8.99967 2.25C11.1628 2.25 12.9163 4.00355 12.9163 6.16667C12.9163 8.32978 11.1628 10.0833 8.99967 10.0833C6.83656 10.0833 5.08301 8.32978 5.08301 6.16667ZM8.99967 0.75C6.00813 0.75 3.58301 3.17512 3.58301 6.16667C3.58301 9.15821 6.00813 11.5833 8.99967 11.5833C11.9912 11.5833 14.4163 9.15821 14.4163 6.16667C14.4163 3.17512 11.9912 0.75 8.99967 0.75ZM1.58301 19.3889C1.58301 17.6373 2.96259 16.25 4.62467 16.25H13.3747C15.0368 16.25 16.4163 17.6373 16.4163 19.3889V20.5833H1.58301V19.3889ZM4.62467 14.75C2.09859 14.75 0.0830078 16.8449 0.0830078 19.3889V21.3333C0.0830078 21.7475 0.418794 22.0833 0.833008 22.0833H17.1663C17.5806 22.0833 17.9163 21.7475 17.9163 21.3333V19.3889C17.9163 16.8449 15.9008 14.75 13.3747 14.75H4.62467Z" fill="#302A2A"/>
</svg>
