<svg width="18" height="23" viewBox="0 0 18 23" fill="none" xmlns="http://www.w3.org/2000/svg">
<path fill-rule="evenodd" clip-rule="evenodd" d="M8.99968 2.25C7.48089 2.25 6.24968 3.48122 6.24968 5V5.41667H11.7497V5C11.7497 3.48122 10.5185 2.25 8.99968 2.25ZM13.2497 5.41667V5C13.2497 2.65279 11.3469 0.75 8.99968 0.75C6.65247 0.75 4.74968 2.65279 4.74968 5V5.41667H1.99968C1.60777 5.41667 1.28194 5.7184 1.25189 6.10914L0.0852191 21.2758C0.0691966 21.4841 0.140776 21.6896 0.282718 21.8429C0.424661 21.9962 0.624102 22.0833 0.83301 22.0833H17.1663C17.3752 22.0833 17.5747 21.9962 17.7166 21.8429C17.8586 21.6896 17.9302 21.4841 17.9141 21.2758L16.7475 6.10914C16.7174 5.7184 16.3916 5.41667 15.9997 5.41667H13.2497ZM11.7497 6.91667V8.5C11.7497 8.91421 12.0855 9.25 12.4997 9.25C12.9139 9.25 13.2497 8.91421 13.2497 8.5V6.91667H15.3052L16.3564 20.5833H1.64292L2.6942 6.91667H4.74968V8.5C4.74968 8.91421 5.08546 9.25 5.49968 9.25C5.91389 9.25 6.24968 8.91421 6.24968 8.5V6.91667H11.7497Z" fill="#302A2A"/>
</svg>
