<svg width="28" height="28" viewBox="0 0 28 28" fill="none" xmlns="http://www.w3.org/2000/svg">
<path d="M18.0303 16.9697C17.7374 16.6768 17.2626 16.6768 16.9697 16.9697C16.6768 17.2626 16.6768 17.7374 16.9697 18.0303L18.0303 16.9697ZM23.9697 25.0303C24.2626 25.3232 24.7374 25.3232 25.0303 25.0303C25.3232 24.7374 25.3232 24.2626 25.0303 23.9697L23.9697 25.0303ZM11.6667 19.0833C7.57055 19.0833 4.25 15.7628 4.25 11.6667H2.75C2.75 16.5912 6.74213 20.5833 11.6667 20.5833V19.0833ZM19.0833 11.6667C19.0833 15.7628 15.7628 19.0833 11.6667 19.0833V20.5833C16.5912 20.5833 20.5833 16.5912 20.5833 11.6667H19.0833ZM11.6667 4.25C15.7628 4.25 19.0833 7.57055 19.0833 11.6667H20.5833C20.5833 6.74213 16.5912 2.75 11.6667 2.75V4.25ZM11.6667 2.75C6.74213 2.75 2.75 6.74213 2.75 11.6667H4.25C4.25 7.57055 7.57055 4.25 11.6667 4.25V2.75ZM16.9697 18.0303L23.9697 25.0303L25.0303 23.9697L18.0303 16.9697L16.9697 18.0303Z" fill="#302A2A"/>
</svg>
